<svg width="222" height="229" viewBox="0 0 222 229" fill="none" xmlns="http://www.w3.org/2000/svg">
<path d="M110.915 114.416L126.057 228.727H95.8076L110.915 114.416Z" fill="#A7FC00"/>
<path d="M110.915 114.416L57.4097 215.937L32.9316 197.69L110.915 114.416Z" fill="#A7FC00"/>
<path d="M110.915 114.416L9.26839 164.186L0 134.678L110.915 114.416Z" fill="#A7FC00"/>
<path d="M110.916 114.416L0.13623 93.3537L9.60832 63.9156L110.916 114.416Z" fill="#A7FC00"/>
<path d="M110.915 114.416L33.5083 30.585L58.0882 12.512L110.915 114.416Z" fill="#A7FC00"/>
<path d="M110.914 114.416L96.5532 0L126.837 0.208534L110.914 114.416Z" fill="#A7FC00"/>
<path d="M110.915 114.416L165.133 13.2768L189.475 31.6973L110.915 114.416Z" fill="#A7FC00"/>
<path d="M110.915 114.416L212.901 65.3755L221.999 94.9179L110.915 114.416Z" fill="#A7FC00"/>
<path d="M110.915 114.416L221.558 136.277L211.882 165.611L110.915 114.416Z" fill="#A7FC00"/>
<path d="M110.915 114.416L187.778 198.768L163.062 216.667L110.915 114.416Z" fill="#A7FC00"/>
</svg>
