<svg width="298" height="303" viewBox="0 0 298 303" fill="none" xmlns="http://www.w3.org/2000/svg">
<path d="M159.27 43.2445L193.29 4.94295C202.43 -5.33651 219.187 1.70421 218.494 15.551L215.909 67.0891C215.494 75.8195 222.556 83.0011 231.096 82.5317L281.781 79.9032C295.399 79.1991 302.323 96.2376 292.213 105.531L254.546 140.125C248.176 145.945 248.176 156.131 254.546 161.951L292.213 196.544C302.323 205.838 295.399 222.877 281.781 222.173L231.096 219.544C222.51 219.122 215.448 226.303 215.909 234.987L218.494 286.525C219.187 300.372 202.43 307.412 193.29 297.133L159.27 258.831C153.546 252.354 143.529 252.354 137.805 258.831L103.784 297.133C94.6443 307.412 77.8878 300.372 78.5803 286.525L81.1653 234.987C81.5807 226.256 74.5181 219.075 65.9783 219.544L15.2935 222.173C1.676 222.877 -5.24816 205.838 4.86111 196.544L42.5285 161.951C48.8987 156.131 48.8987 145.945 42.5285 140.125L4.81495 105.484C-5.29432 96.1907 1.62984 79.1522 15.2473 79.8562L65.9321 82.4848C74.5181 82.9072 81.5807 75.7257 81.1191 67.0421L78.5341 15.504C77.8417 1.65728 94.5981 -5.38345 103.738 4.89601L137.759 43.1975C143.483 49.675 153.5 49.675 159.224 43.1975L159.27 43.2445Z" fill="#DF73FF"/>
</svg>
