<svg width="83" height="83" viewBox="0 0 83 83" fill="none" xmlns="http://www.w3.org/2000/svg">
<g clip-path="url(#clip0_226_321)">
<path d="M55.8601 0H27.1399C12.151 0 0 12.151 0 27.1399V55.8601C0 70.849 12.151 83 27.1399 83H55.8601C70.849 83 83 70.849 83 55.8601V27.1399C83 12.151 70.849 0 55.8601 0Z" fill="#F0BDF3"/>
<path d="M31.2463 49.4071H19.7774L17.6105 57.3922H10.4753L21.3936 22.5305H29.8576L40.7518 57.3922H33.4132L31.2463 49.4071ZM21.0105 44.2353H29.9653L25.4999 27.7023L21.0105 44.2353Z" fill="#262223"/>
<path d="M31.2463 49.4071H19.7774L17.6105 57.3922H10.4753L21.3936 22.5305H29.8576L40.7518 57.3922H33.4132L31.2463 49.4071ZM21.0105 44.2353H29.9653L25.4999 27.7023L21.0105 44.2353Z" fill="black" fill-opacity="0.2"/>
<path d="M31.2463 49.4071H19.7774L17.6105 57.3922H10.4753L21.3936 22.5305H29.8576L40.7518 57.3922H33.4132L31.2463 49.4071ZM21.0105 44.2353H29.9653L25.4999 27.7023L21.0105 44.2353Z" fill="black" fill-opacity="0.2"/>
<path d="M31.2463 49.4071H19.7774L17.6105 57.3922H10.4753L21.3936 22.5305H29.8576L40.7518 57.3922H33.4132L31.2463 49.4071ZM21.0105 44.2353H29.9653L25.4999 27.7023L21.0105 44.2353Z" fill="black" fill-opacity="0.2"/>
<path d="M31.2463 49.4071H19.7774L17.6105 57.3922H10.4753L21.3936 22.5305H29.8576L40.7518 57.3922H33.4132L31.2463 49.4071ZM21.0105 44.2353H29.9653L25.4999 27.7023L21.0105 44.2353Z" fill="black" fill-opacity="0.2"/>
<path d="M60.1341 30.6955V52.6756H67.1615V57.3924H45.6603V52.6756H53.4778V35.4123H45.9117V30.6955H60.1341ZM55.8243 17.2393C57.0454 17.2393 58.051 17.6224 58.8172 18.3766C59.5834 19.1308 59.9665 20.0766 59.9665 21.2019C59.9665 22.3272 59.5834 23.273 58.8172 24.0392C58.051 24.8054 57.0574 25.1885 55.8243 25.1885C54.5912 25.1885 53.5975 24.8054 52.8194 24.0392C52.0412 23.273 51.6581 22.3272 51.6581 21.2019C51.6581 20.0766 52.0412 19.1308 52.8194 18.3766C53.5975 17.6224 54.5912 17.2393 55.8243 17.2393Z" fill="#262223"/>
<path d="M60.1341 30.6955V52.6756H67.1615V57.3924H45.6603V52.6756H53.4778V35.4123H45.9117V30.6955H60.1341ZM55.8243 17.2393C57.0454 17.2393 58.051 17.6224 58.8172 18.3766C59.5834 19.1308 59.9665 20.0766 59.9665 21.2019C59.9665 22.3272 59.5834 23.273 58.8172 24.0392C58.051 24.8054 57.0574 25.1885 55.8243 25.1885C54.5912 25.1885 53.5975 24.8054 52.8194 24.0392C52.0412 23.273 51.6581 22.3272 51.6581 21.2019C51.6581 20.0766 52.0412 19.1308 52.8194 18.3766C53.5975 17.6224 54.5912 17.2393 55.8243 17.2393Z" fill="black" fill-opacity="0.2"/>
<path d="M60.1341 30.6955V52.6756H67.1615V57.3924H45.6603V52.6756H53.4778V35.4123H45.9117V30.6955H60.1341ZM55.8243 17.2393C57.0454 17.2393 58.051 17.6224 58.8172 18.3766C59.5834 19.1308 59.9665 20.0766 59.9665 21.2019C59.9665 22.3272 59.5834 23.273 58.8172 24.0392C58.051 24.8054 57.0574 25.1885 55.8243 25.1885C54.5912 25.1885 53.5975 24.8054 52.8194 24.0392C52.0412 23.273 51.6581 22.3272 51.6581 21.2019C51.6581 20.0766 52.0412 19.1308 52.8194 18.3766C53.5975 17.6224 54.5912 17.2393 55.8243 17.2393Z" fill="black" fill-opacity="0.2"/>
<path d="M60.1341 30.6955V52.6756H67.1615V57.3924H45.6603V52.6756H53.4778V35.4123H45.9117V30.6955H60.1341ZM55.8243 17.2393C57.0454 17.2393 58.051 17.6224 58.8172 18.3766C59.5834 19.1308 59.9665 20.0766 59.9665 21.2019C59.9665 22.3272 59.5834 23.273 58.8172 24.0392C58.051 24.8054 57.0574 25.1885 55.8243 25.1885C54.5912 25.1885 53.5975 24.8054 52.8194 24.0392C52.0412 23.273 51.6581 22.3272 51.6581 21.2019C51.6581 20.0766 52.0412 19.1308 52.8194 18.3766C53.5975 17.6224 54.5912 17.2393 55.8243 17.2393Z" fill="black" fill-opacity="0.2"/>
<path d="M60.1341 30.6955V52.6756H67.1615V57.3924H45.6603V52.6756H53.4778V35.4123H45.9117V30.6955H60.1341ZM55.8243 17.2393C57.0454 17.2393 58.051 17.6224 58.8172 18.3766C59.5834 19.1308 59.9665 20.0766 59.9665 21.2019C59.9665 22.3272 59.5834 23.273 58.8172 24.0392C58.051 24.8054 57.0574 25.1885 55.8243 25.1885C54.5912 25.1885 53.5975 24.8054 52.8194 24.0392C52.0412 23.273 51.6581 22.3272 51.6581 21.2019C51.6581 20.0766 52.0412 19.1308 52.8194 18.3766C53.5975 17.6224 54.5912 17.2393 55.8243 17.2393Z" fill="black" fill-opacity="0.2"/>
</g>
<defs>
<clipPath id="clip0_226_321">
<rect width="83" height="83" fill="white"/>
</clipPath>
</defs>
</svg>
