<svg width="66" height="67" viewBox="0 0 66 67" fill="none" xmlns="http://www.w3.org/2000/svg">
<path d="M32.9749 33.5151L37.4765 66.9999H28.4834L32.9749 33.5151Z" fill="#A7FC00"/>
<path d="M32.9748 33.5151L17.0678 63.2534L9.79053 57.9084L32.9748 33.5151Z" fill="#A7FC00"/>
<path d="M32.9748 33.5151L2.75547 48.0941L0 39.4506L32.9748 33.5151Z" fill="#A7FC00"/>
<path d="M32.9747 33.5152L0.0402832 27.3456L2.85631 18.7224L32.9747 33.5152Z" fill="#A7FC00"/>
<path d="M32.9748 33.515L9.96216 8.95883L17.2697 3.66479L32.9748 33.515Z" fill="#A7FC00"/>
<path d="M32.9748 33.5153L28.7053 0L37.7085 0.061085L32.9748 33.5153Z" fill="#A7FC00"/>
<path d="M32.9749 33.5152L49.0938 3.88892L56.3307 9.28476L32.9749 33.5152Z" fill="#A7FC00"/>
<path d="M32.9749 33.5153L63.2951 19.1501L66.0001 27.8039L32.9749 33.5153Z" fill="#A7FC00"/>
<path d="M32.9749 33.5151L65.8689 39.9189L62.9923 48.5115L32.9749 33.5151Z" fill="#A7FC00"/>
<path d="M32.9749 33.5151L55.8261 58.224L48.4781 63.4672L32.9749 33.5151Z" fill="#A7FC00"/>
</svg>
