<svg width="150" height="153" viewBox="0 0 150 153" fill="none" xmlns="http://www.w3.org/2000/svg">
<path d="M79.903 21.7654L96.9706 2.48784C101.556 -2.68592 109.962 0.85775 109.615 7.82698L108.318 33.7667C108.11 38.1608 111.653 41.7754 115.937 41.5391L141.365 40.2162C148.197 39.8618 151.67 48.4375 146.599 53.1151L127.702 70.5264C124.506 73.4558 124.506 78.5823 127.702 81.5118L146.599 98.923C151.67 103.601 148.197 112.176 141.365 111.822L115.937 110.499C111.63 110.286 108.087 113.901 108.318 118.271L109.615 144.211C109.962 151.18 101.556 154.724 96.9706 149.55L79.903 130.273C77.0314 127.013 72.006 127.013 69.1344 130.273L52.0668 149.55C47.4815 154.724 39.075 151.18 39.4224 144.211L40.7193 118.271C40.9277 113.877 37.3845 110.263 33.1002 110.499L7.6725 111.822C0.84082 112.176 -2.63291 103.601 2.43874 98.923L21.3358 81.5118C24.5317 78.5823 24.5317 73.4558 21.3358 70.5264L2.41558 53.0915C-2.65607 48.4139 0.817662 39.8382 7.64934 40.1925L33.0771 41.5155C37.3845 41.7281 40.9277 38.1136 40.6961 33.743L39.3993 7.80335C39.0519 0.834125 47.4583 -2.70955 52.0436 2.46422L69.1113 21.7418C71.9829 25.002 77.0082 25.002 79.8798 21.7418L79.903 21.7654Z" fill="#262223"/>
<path d="M79.903 21.7654L96.9706 2.48784C101.556 -2.68592 109.962 0.85775 109.615 7.82698L108.318 33.7667C108.11 38.1608 111.653 41.7754 115.937 41.5391L141.365 40.2162C148.197 39.8618 151.67 48.4375 146.599 53.1151L127.702 70.5264C124.506 73.4558 124.506 78.5823 127.702 81.5118L146.599 98.923C151.67 103.601 148.197 112.176 141.365 111.822L115.937 110.499C111.63 110.286 108.087 113.901 108.318 118.271L109.615 144.211C109.962 151.18 101.556 154.724 96.9706 149.55L79.903 130.273C77.0314 127.013 72.006 127.013 69.1344 130.273L52.0668 149.55C47.4815 154.724 39.075 151.18 39.4224 144.211L40.7193 118.271C40.9277 113.877 37.3845 110.263 33.1002 110.499L7.6725 111.822C0.84082 112.176 -2.63291 103.601 2.43874 98.923L21.3358 81.5118C24.5317 78.5823 24.5317 73.4558 21.3358 70.5264L2.41558 53.0915C-2.65607 48.4139 0.817662 39.8382 7.64934 40.1925L33.0771 41.5155C37.3845 41.7281 40.9277 38.1136 40.6961 33.743L39.3993 7.80335C39.0519 0.834125 47.4583 -2.70955 52.0436 2.46422L69.1113 21.7418C71.9829 25.002 77.0082 25.002 79.8798 21.7418L79.903 21.7654Z" fill="black" fill-opacity="0.2"/>
<path d="M79.903 21.7654L96.9706 2.48784C101.556 -2.68592 109.962 0.85775 109.615 7.82698L108.318 33.7667C108.11 38.1608 111.653 41.7754 115.937 41.5391L141.365 40.2162C148.197 39.8618 151.67 48.4375 146.599 53.1151L127.702 70.5264C124.506 73.4558 124.506 78.5823 127.702 81.5118L146.599 98.923C151.67 103.601 148.197 112.176 141.365 111.822L115.937 110.499C111.63 110.286 108.087 113.901 108.318 118.271L109.615 144.211C109.962 151.18 101.556 154.724 96.9706 149.55L79.903 130.273C77.0314 127.013 72.006 127.013 69.1344 130.273L52.0668 149.55C47.4815 154.724 39.075 151.18 39.4224 144.211L40.7193 118.271C40.9277 113.877 37.3845 110.263 33.1002 110.499L7.6725 111.822C0.84082 112.176 -2.63291 103.601 2.43874 98.923L21.3358 81.5118C24.5317 78.5823 24.5317 73.4558 21.3358 70.5264L2.41558 53.0915C-2.65607 48.4139 0.817662 39.8382 7.64934 40.1925L33.0771 41.5155C37.3845 41.7281 40.9277 38.1136 40.6961 33.743L39.3993 7.80335C39.0519 0.834125 47.4583 -2.70955 52.0436 2.46422L69.1113 21.7418C71.9829 25.002 77.0082 25.002 79.8798 21.7418L79.903 21.7654Z" fill="black" fill-opacity="0.2"/>
<path d="M79.903 21.7654L96.9706 2.48784C101.556 -2.68592 109.962 0.85775 109.615 7.82698L108.318 33.7667C108.11 38.1608 111.653 41.7754 115.937 41.5391L141.365 40.2162C148.197 39.8618 151.67 48.4375 146.599 53.1151L127.702 70.5264C124.506 73.4558 124.506 78.5823 127.702 81.5118L146.599 98.923C151.67 103.601 148.197 112.176 141.365 111.822L115.937 110.499C111.63 110.286 108.087 113.901 108.318 118.271L109.615 144.211C109.962 151.18 101.556 154.724 96.9706 149.55L79.903 130.273C77.0314 127.013 72.006 127.013 69.1344 130.273L52.0668 149.55C47.4815 154.724 39.075 151.18 39.4224 144.211L40.7193 118.271C40.9277 113.877 37.3845 110.263 33.1002 110.499L7.6725 111.822C0.84082 112.176 -2.63291 103.601 2.43874 98.923L21.3358 81.5118C24.5317 78.5823 24.5317 73.4558 21.3358 70.5264L2.41558 53.0915C-2.65607 48.4139 0.817662 39.8382 7.64934 40.1925L33.0771 41.5155C37.3845 41.7281 40.9277 38.1136 40.6961 33.743L39.3993 7.80335C39.0519 0.834125 47.4583 -2.70955 52.0436 2.46422L69.1113 21.7418C71.9829 25.002 77.0082 25.002 79.8798 21.7418L79.903 21.7654Z" fill="black" fill-opacity="0.2"/>
<path d="M79.903 21.7654L96.9706 2.48784C101.556 -2.68592 109.962 0.85775 109.615 7.82698L108.318 33.7667C108.11 38.1608 111.653 41.7754 115.937 41.5391L141.365 40.2162C148.197 39.8618 151.67 48.4375 146.599 53.1151L127.702 70.5264C124.506 73.4558 124.506 78.5823 127.702 81.5118L146.599 98.923C151.67 103.601 148.197 112.176 141.365 111.822L115.937 110.499C111.63 110.286 108.087 113.901 108.318 118.271L109.615 144.211C109.962 151.18 101.556 154.724 96.9706 149.55L79.903 130.273C77.0314 127.013 72.006 127.013 69.1344 130.273L52.0668 149.55C47.4815 154.724 39.075 151.18 39.4224 144.211L40.7193 118.271C40.9277 113.877 37.3845 110.263 33.1002 110.499L7.6725 111.822C0.84082 112.176 -2.63291 103.601 2.43874 98.923L21.3358 81.5118C24.5317 78.5823 24.5317 73.4558 21.3358 70.5264L2.41558 53.0915C-2.65607 48.4139 0.817662 39.8382 7.64934 40.1925L33.0771 41.5155C37.3845 41.7281 40.9277 38.1136 40.6961 33.743L39.3993 7.80335C39.0519 0.834125 47.4583 -2.70955 52.0436 2.46422L69.1113 21.7418C71.9829 25.002 77.0082 25.002 79.8798 21.7418L79.903 21.7654Z" fill="black" fill-opacity="0.2"/>
</svg>
