<svg width="83" height="83" viewBox="0 0 83 83" fill="none" xmlns="http://www.w3.org/2000/svg">
<g clip-path="url(#clip0_226_345)">
<path d="M55.8601 0H27.1399C12.151 0 0 12.151 0 27.1399V55.8601C0 70.849 12.151 83 27.1399 83H55.8601C70.849 83 83 70.849 83 55.8601V27.1399C83 12.151 70.849 0 55.8601 0Z" fill="#F0BDF3"/>
<path d="M44.3194 49.5033L44.2835 58.8053C44.2835 62.2412 42.2602 65.3179 39.5666 66.9581C36.4539 68.8616 32.7547 68.9214 29.642 67.2573C26.5294 65.5933 24.6857 62.5525 24.4822 59.2722C24.2548 55.7286 25.8709 52.4483 28.8998 50.4131C26.0864 48.5695 24.4822 45.5287 24.4583 42.2843C24.4343 39.04 26.0505 35.8794 28.8998 34.0119C25.1766 31.5098 23.6083 27.0922 24.9132 22.8662C26.1343 18.9275 29.8455 16.0064 34.1913 15.9944L50.9038 15.9705C55.2735 15.9705 59.0685 18.6521 60.4094 22.6507C61.834 26.9126 60.2777 31.4619 56.5066 34.0119C60.1819 36.4541 61.7861 40.8956 60.4932 45.1336C59.296 49.0364 55.6327 51.9096 51.3587 52.0293C48.7609 52.1011 46.4264 51.299 44.3194 49.5033ZM41.099 32.4076V19.2028L34.2511 19.2148C30.5758 19.2148 27.6667 22.2436 27.6906 25.8471C27.7146 29.4506 30.5399 32.3957 34.1913 32.3957H41.099V32.4076ZM51.1552 32.3957C54.9263 32.3957 57.7516 29.271 57.7038 25.7035C57.6559 22.1359 54.6989 19.1909 51.0235 19.1909H44.2954V32.4076H51.1433L51.1552 32.3957ZM41.099 48.8209V35.6161L34.1913 35.64C30.504 35.64 27.6547 38.7287 27.6906 42.2963C27.7266 45.8639 30.5639 48.8089 34.1913 48.8089H41.099V48.8209ZM57.6798 42.2245C57.6798 38.5491 54.6989 35.5682 51.0235 35.5682C47.3482 35.5682 44.3673 38.5491 44.3673 42.2245C44.3673 45.8998 47.3482 48.8807 51.0235 48.8807C54.6989 48.8807 57.6798 45.8998 57.6798 42.2245ZM41.099 58.3264V52.0293H34.3349C31.2343 52.0293 28.6364 54.1124 27.9061 56.9617C27.1759 59.8109 28.4568 62.9475 31.1744 64.42C33.3293 65.5933 35.8793 65.4736 37.9624 64.1686C39.8898 62.9595 41.099 60.8166 41.099 58.3145V58.3264Z" fill="#262223"/>
<path d="M44.3194 49.5033L44.2835 58.8053C44.2835 62.2412 42.2602 65.3179 39.5666 66.9581C36.4539 68.8616 32.7547 68.9214 29.642 67.2573C26.5294 65.5933 24.6857 62.5525 24.4822 59.2722C24.2548 55.7286 25.8709 52.4483 28.8998 50.4131C26.0864 48.5695 24.4822 45.5287 24.4583 42.2843C24.4343 39.04 26.0505 35.8794 28.8998 34.0119C25.1766 31.5098 23.6083 27.0922 24.9132 22.8662C26.1343 18.9275 29.8455 16.0064 34.1913 15.9944L50.9038 15.9705C55.2735 15.9705 59.0685 18.6521 60.4094 22.6507C61.834 26.9126 60.2777 31.4619 56.5066 34.0119C60.1819 36.4541 61.7861 40.8956 60.4932 45.1336C59.296 49.0364 55.6327 51.9096 51.3587 52.0293C48.7609 52.1011 46.4264 51.299 44.3194 49.5033ZM41.099 32.4076V19.2028L34.2511 19.2148C30.5758 19.2148 27.6667 22.2436 27.6906 25.8471C27.7146 29.4506 30.5399 32.3957 34.1913 32.3957H41.099V32.4076ZM51.1552 32.3957C54.9263 32.3957 57.7516 29.271 57.7038 25.7035C57.6559 22.1359 54.6989 19.1909 51.0235 19.1909H44.2954V32.4076H51.1433L51.1552 32.3957ZM41.099 48.8209V35.6161L34.1913 35.64C30.504 35.64 27.6547 38.7287 27.6906 42.2963C27.7266 45.8639 30.5639 48.8089 34.1913 48.8089H41.099V48.8209ZM57.6798 42.2245C57.6798 38.5491 54.6989 35.5682 51.0235 35.5682C47.3482 35.5682 44.3673 38.5491 44.3673 42.2245C44.3673 45.8998 47.3482 48.8807 51.0235 48.8807C54.6989 48.8807 57.6798 45.8998 57.6798 42.2245ZM41.099 58.3264V52.0293H34.3349C31.2343 52.0293 28.6364 54.1124 27.9061 56.9617C27.1759 59.8109 28.4568 62.9475 31.1744 64.42C33.3293 65.5933 35.8793 65.4736 37.9624 64.1686C39.8898 62.9595 41.099 60.8166 41.099 58.3145V58.3264Z" fill="black" fill-opacity="0.2"/>
<path d="M44.3194 49.5033L44.2835 58.8053C44.2835 62.2412 42.2602 65.3179 39.5666 66.9581C36.4539 68.8616 32.7547 68.9214 29.642 67.2573C26.5294 65.5933 24.6857 62.5525 24.4822 59.2722C24.2548 55.7286 25.8709 52.4483 28.8998 50.4131C26.0864 48.5695 24.4822 45.5287 24.4583 42.2843C24.4343 39.04 26.0505 35.8794 28.8998 34.0119C25.1766 31.5098 23.6083 27.0922 24.9132 22.8662C26.1343 18.9275 29.8455 16.0064 34.1913 15.9944L50.9038 15.9705C55.2735 15.9705 59.0685 18.6521 60.4094 22.6507C61.834 26.9126 60.2777 31.4619 56.5066 34.0119C60.1819 36.4541 61.7861 40.8956 60.4932 45.1336C59.296 49.0364 55.6327 51.9096 51.3587 52.0293C48.7609 52.1011 46.4264 51.299 44.3194 49.5033ZM41.099 32.4076V19.2028L34.2511 19.2148C30.5758 19.2148 27.6667 22.2436 27.6906 25.8471C27.7146 29.4506 30.5399 32.3957 34.1913 32.3957H41.099V32.4076ZM51.1552 32.3957C54.9263 32.3957 57.7516 29.271 57.7038 25.7035C57.6559 22.1359 54.6989 19.1909 51.0235 19.1909H44.2954V32.4076H51.1433L51.1552 32.3957ZM41.099 48.8209V35.6161L34.1913 35.64C30.504 35.64 27.6547 38.7287 27.6906 42.2963C27.7266 45.8639 30.5639 48.8089 34.1913 48.8089H41.099V48.8209ZM57.6798 42.2245C57.6798 38.5491 54.6989 35.5682 51.0235 35.5682C47.3482 35.5682 44.3673 38.5491 44.3673 42.2245C44.3673 45.8998 47.3482 48.8807 51.0235 48.8807C54.6989 48.8807 57.6798 45.8998 57.6798 42.2245ZM41.099 58.3264V52.0293H34.3349C31.2343 52.0293 28.6364 54.1124 27.9061 56.9617C27.1759 59.8109 28.4568 62.9475 31.1744 64.42C33.3293 65.5933 35.8793 65.4736 37.9624 64.1686C39.8898 62.9595 41.099 60.8166 41.099 58.3145V58.3264Z" fill="black" fill-opacity="0.2"/>
<path d="M44.3194 49.5033L44.2835 58.8053C44.2835 62.2412 42.2602 65.3179 39.5666 66.9581C36.4539 68.8616 32.7547 68.9214 29.642 67.2573C26.5294 65.5933 24.6857 62.5525 24.4822 59.2722C24.2548 55.7286 25.8709 52.4483 28.8998 50.4131C26.0864 48.5695 24.4822 45.5287 24.4583 42.2843C24.4343 39.04 26.0505 35.8794 28.8998 34.0119C25.1766 31.5098 23.6083 27.0922 24.9132 22.8662C26.1343 18.9275 29.8455 16.0064 34.1913 15.9944L50.9038 15.9705C55.2735 15.9705 59.0685 18.6521 60.4094 22.6507C61.834 26.9126 60.2777 31.4619 56.5066 34.0119C60.1819 36.4541 61.7861 40.8956 60.4932 45.1336C59.296 49.0364 55.6327 51.9096 51.3587 52.0293C48.7609 52.1011 46.4264 51.299 44.3194 49.5033ZM41.099 32.4076V19.2028L34.2511 19.2148C30.5758 19.2148 27.6667 22.2436 27.6906 25.8471C27.7146 29.4506 30.5399 32.3957 34.1913 32.3957H41.099V32.4076ZM51.1552 32.3957C54.9263 32.3957 57.7516 29.271 57.7038 25.7035C57.6559 22.1359 54.6989 19.1909 51.0235 19.1909H44.2954V32.4076H51.1433L51.1552 32.3957ZM41.099 48.8209V35.6161L34.1913 35.64C30.504 35.64 27.6547 38.7287 27.6906 42.2963C27.7266 45.8639 30.5639 48.8089 34.1913 48.8089H41.099V48.8209ZM57.6798 42.2245C57.6798 38.5491 54.6989 35.5682 51.0235 35.5682C47.3482 35.5682 44.3673 38.5491 44.3673 42.2245C44.3673 45.8998 47.3482 48.8807 51.0235 48.8807C54.6989 48.8807 57.6798 45.8998 57.6798 42.2245ZM41.099 58.3264V52.0293H34.3349C31.2343 52.0293 28.6364 54.1124 27.9061 56.9617C27.1759 59.8109 28.4568 62.9475 31.1744 64.42C33.3293 65.5933 35.8793 65.4736 37.9624 64.1686C39.8898 62.9595 41.099 60.8166 41.099 58.3145V58.3264Z" fill="black" fill-opacity="0.2"/>
<path d="M44.3194 49.5033L44.2835 58.8053C44.2835 62.2412 42.2602 65.3179 39.5666 66.9581C36.4539 68.8616 32.7547 68.9214 29.642 67.2573C26.5294 65.5933 24.6857 62.5525 24.4822 59.2722C24.2548 55.7286 25.8709 52.4483 28.8998 50.4131C26.0864 48.5695 24.4822 45.5287 24.4583 42.2843C24.4343 39.04 26.0505 35.8794 28.8998 34.0119C25.1766 31.5098 23.6083 27.0922 24.9132 22.8662C26.1343 18.9275 29.8455 16.0064 34.1913 15.9944L50.9038 15.9705C55.2735 15.9705 59.0685 18.6521 60.4094 22.6507C61.834 26.9126 60.2777 31.4619 56.5066 34.0119C60.1819 36.4541 61.7861 40.8956 60.4932 45.1336C59.296 49.0364 55.6327 51.9096 51.3587 52.0293C48.7609 52.1011 46.4264 51.299 44.3194 49.5033ZM41.099 32.4076V19.2028L34.2511 19.2148C30.5758 19.2148 27.6667 22.2436 27.6906 25.8471C27.7146 29.4506 30.5399 32.3957 34.1913 32.3957H41.099V32.4076ZM51.1552 32.3957C54.9263 32.3957 57.7516 29.271 57.7038 25.7035C57.6559 22.1359 54.6989 19.1909 51.0235 19.1909H44.2954V32.4076H51.1433L51.1552 32.3957ZM41.099 48.8209V35.6161L34.1913 35.64C30.504 35.64 27.6547 38.7287 27.6906 42.2963C27.7266 45.8639 30.5639 48.8089 34.1913 48.8089H41.099V48.8209ZM57.6798 42.2245C57.6798 38.5491 54.6989 35.5682 51.0235 35.5682C47.3482 35.5682 44.3673 38.5491 44.3673 42.2245C44.3673 45.8998 47.3482 48.8807 51.0235 48.8807C54.6989 48.8807 57.6798 45.8998 57.6798 42.2245ZM41.099 58.3264V52.0293H34.3349C31.2343 52.0293 28.6364 54.1124 27.9061 56.9617C27.1759 59.8109 28.4568 62.9475 31.1744 64.42C33.3293 65.5933 35.8793 65.4736 37.9624 64.1686C39.8898 62.9595 41.099 60.8166 41.099 58.3145V58.3264Z" fill="black" fill-opacity="0.2"/>
</g>
<defs>
<clipPath id="clip0_226_345">
<rect width="83" height="83" fill="white"/>
</clipPath>
</defs>
</svg>
