<svg width="92" height="92" viewBox="0 0 92 92" fill="none" xmlns="http://www.w3.org/2000/svg">
<path d="M46 75.0154L46 16.6483" stroke="#262223" stroke-width="2" stroke-miterlimit="10"/>
<path d="M46 75.0154L46 16.6483" stroke="black" stroke-opacity="0.2" stroke-width="2" stroke-miterlimit="10"/>
<path d="M46 75.0154L46 16.6483" stroke="black" stroke-opacity="0.2" stroke-width="2" stroke-miterlimit="10"/>
<path d="M46 75.0154L46 16.6483" stroke="black" stroke-opacity="0.2" stroke-width="2" stroke-miterlimit="10"/>
<path d="M46 75.0154L46 16.6483" stroke="black" stroke-opacity="0.2" stroke-width="2" stroke-miterlimit="10"/>
<path d="M21.2307 50.2959C34.9121 50.2959 45.9999 61.3615 45.9999 75.0154" stroke="#262223" stroke-width="2" stroke-miterlimit="10"/>
<path d="M21.2307 50.2959C34.9121 50.2959 45.9999 61.3615 45.9999 75.0154" stroke="black" stroke-opacity="0.2" stroke-width="2" stroke-miterlimit="10"/>
<path d="M21.2307 50.2959C34.9121 50.2959 45.9999 61.3615 45.9999 75.0154" stroke="black" stroke-opacity="0.2" stroke-width="2" stroke-miterlimit="10"/>
<path d="M21.2307 50.2959C34.9121 50.2959 45.9999 61.3615 45.9999 75.0154" stroke="black" stroke-opacity="0.2" stroke-width="2" stroke-miterlimit="10"/>
<path d="M21.2307 50.2959C34.9121 50.2959 45.9999 61.3615 45.9999 75.0154" stroke="black" stroke-opacity="0.2" stroke-width="2" stroke-miterlimit="10"/>
<path d="M70.7692 50.2959C57.0879 50.2959 46 61.3615 46 75.0154" stroke="#262223" stroke-width="2" stroke-miterlimit="10"/>
<path d="M70.7692 50.2959C57.0879 50.2959 46 61.3615 46 75.0154" stroke="black" stroke-opacity="0.2" stroke-width="2" stroke-miterlimit="10"/>
<path d="M70.7692 50.2959C57.0879 50.2959 46 61.3615 46 75.0154" stroke="black" stroke-opacity="0.2" stroke-width="2" stroke-miterlimit="10"/>
<path d="M70.7692 50.2959C57.0879 50.2959 46 61.3615 46 75.0154" stroke="black" stroke-opacity="0.2" stroke-width="2" stroke-miterlimit="10"/>
<path d="M70.7692 50.2959C57.0879 50.2959 46 61.3615 46 75.0154" stroke="black" stroke-opacity="0.2" stroke-width="2" stroke-miterlimit="10"/>
<circle cx="46" cy="46" r="45" stroke="#262223" stroke-width="2"/>
<circle cx="46" cy="46" r="45" stroke="black" stroke-opacity="0.2" stroke-width="2"/>
<circle cx="46" cy="46" r="45" stroke="black" stroke-opacity="0.2" stroke-width="2"/>
<circle cx="46" cy="46" r="45" stroke="black" stroke-opacity="0.2" stroke-width="2"/>
<circle cx="46" cy="46" r="45" stroke="black" stroke-opacity="0.2" stroke-width="2"/>
</svg>
