<svg width="307" height="303" viewBox="0 0 307 303" fill="none" xmlns="http://www.w3.org/2000/svg">
<path d="M42.3624 37.4945L69.0543 59.5074C73.1634 62.9014 78.5313 64.3603 83.7924 63.5307L168.049 50.1943C173.449 49.3428 178.204 46.1454 181.043 41.4733L198.031 13.4664C204.97 2.02384 221.354 1.4107 229.098 12.3358C248.254 39.3654 276.855 88.1822 278.384 140.394C280.701 219.253 237.132 264.734 167.784 275.709C98.4363 286.685 32.3097 266.686 11.6329 174.484C-0.959209 118.37 5.54737 73.5225 12.5705 47.0262C16.0411 33.9368 31.9274 28.8828 42.3738 37.5029L42.3624 37.4945Z" fill="#6F6BF2"/>
<path d="M39.71 41.1524C47.2146 47.3419 54.7209 53.5414 62.2354 59.7295C66.1563 62.9601 69.8521 66.1147 74.9274 67.4572C78.9662 68.5366 82.9018 68.2512 86.9338 67.6154C108.392 64.2217 129.841 60.8295 151.298 57.4259C157.777 56.4042 164.564 55.8519 170.919 54.1694C182.967 50.9799 188.053 38.6008 193.967 28.843C199.278 20.0842 204.97 5.88299 217.874 9.54554C225.497 11.7153 229.814 21.1292 233.804 27.3143C239.176 35.6276 244.144 44.2078 248.688 53.0068C268.404 91.19 279.224 133.865 271.29 176.743C265.672 207.07 249.31 233.84 223.346 250.842C197.28 267.91 164.109 274.299 133.316 273.934C104.832 273.601 76.5444 265.875 54.9118 246.649C27.0552 221.885 16.2866 183.844 11.4946 148.163C8.7706 127.854 8.22898 107.283 10.1396 86.8739C10.8892 78.8749 12.008 70.8991 13.5267 63.0125C14.7207 56.802 15.4188 48.0901 19.4935 43.0198C24.6202 36.6361 33.4779 36.3362 39.7084 41.1424C44.3192 44.6909 49.6255 37.3851 45.0163 33.8465C38.2321 28.6198 29.3117 27.2336 21.3553 30.6107C13.5315 33.9263 9.52105 40.6926 7.53721 48.5916C3.44797 64.9064 1.06523 81.6122 0.292721 98.4198C-0.741375 120.976 0.978775 143.677 5.22489 165.846C9.0376 185.719 14.8486 205.448 24.9139 223.117C40.4828 250.448 65.3471 270.271 95.8997 278.189C127.046 286.266 161.673 283.965 192.314 274.736C222.919 265.523 250.149 246.635 265.924 218.394C284.781 184.649 286.954 142.456 278.158 105.404C272.735 82.5254 263.473 60.6787 252 40.1965C247.278 31.7603 242.175 23.5369 236.76 15.5349C231.864 8.30443 226.913 1.89481 217.761 0.321896C209.984 -1.02128 201.836 1.90885 196.632 7.80706C193.634 11.2046 191.515 15.54 189.176 19.382C185.911 24.7612 182.657 30.1389 179.393 35.5182C176.395 40.4594 173.419 44.5136 167.278 45.7559C147.108 49.8503 126.432 52.2169 106.105 55.4424C98.4854 56.6437 90.8405 58.1945 83.1796 59.0674C77.1057 59.7611 72.9834 56.9277 68.6188 53.3304C63.6827 49.2644 58.7451 45.1887 53.8091 41.1228C50.8688 38.7022 47.9384 36.2801 44.9981 33.8595C40.5057 30.1604 35.2208 37.4729 39.6902 41.1555L39.71 41.1524Z" fill="#6F6BF2"/>
<path d="M57.4048 162.169L113.873 153.234C113.873 153.234 135.616 155.889 128.269 176.851C120.923 197.823 99.8826 199.617 90.9669 201.033C68.6809 204.588 51.7023 193.565 47.4399 185.849C43.1773 178.132 47.0018 163.809 57.4048 162.169Z" fill="#F2F2F2"/>
<path d="M57.8734 165.141C66.9588 163.709 76.0425 162.266 85.1264 160.824C91.5466 159.812 97.9668 158.799 104.385 157.777C107.596 157.271 111.002 156.338 114.254 156.221C112.719 156.28 115.006 156.488 115.664 156.669C117.922 157.268 120.165 158.234 122.05 159.623C129.386 165.006 126.786 174.921 122.76 181.649C114.397 195.591 93.7963 199.785 78.6276 198.571C69.3405 197.821 59.1263 194.476 52.5151 187.577C46.2438 181.031 47.9448 167.215 57.8636 165.143C61.6384 164.355 60.7309 158.404 56.9264 159.198C47.5296 161.167 42.2875 170.361 42.7572 179.59C43.1938 188.092 49.4001 193.968 56.4094 197.982C66.2194 203.595 77.7578 205.614 88.9488 204.337C97.0882 203.409 105.574 201.97 112.966 198.295C127.456 191.085 142.808 165.835 124.63 154.088C115.98 148.495 108.4 151.04 98.9006 152.549C84.9107 154.755 70.9243 156.98 56.9247 159.188C53.1004 159.791 54.0277 165.737 57.862 165.133L57.8734 165.141Z" fill="#F2F2F2"/>
<path d="M185.203 141.946L241.672 133.012C241.672 133.012 263.413 135.667 256.066 156.629C248.72 177.601 227.68 179.395 218.765 180.811C196.479 184.365 179.5 173.342 175.238 165.626C170.976 157.91 174.8 143.587 185.203 141.946Z" fill="#F2F2F2"/>
<path d="M185.644 144.751C194.731 143.317 203.814 141.876 212.898 140.433C219.318 139.42 225.738 138.408 232.157 137.385C235.357 136.881 238.781 135.935 242.024 135.829C240.58 135.875 242.891 136.109 243.528 136.283C245.807 136.889 248.052 137.865 249.958 139.26C257.375 144.702 254.79 154.717 250.705 161.526C242.309 175.514 221.642 179.737 206.423 178.521C197.094 177.768 186.836 174.399 180.198 167.463C173.561 160.528 175.608 146.85 185.654 144.749C189.223 144.003 188.358 138.392 184.771 139.14C175.471 141.084 170.289 150.208 170.744 159.338C171.174 167.8 177.353 173.63 184.327 177.618C194.103 183.206 205.598 185.212 216.74 183.942C224.86 183.017 233.335 181.58 240.717 177.907C255.094 170.756 270.42 145.651 252.357 133.998C243.743 128.439 236.205 130.989 226.754 132.489C212.765 134.695 198.779 136.921 184.779 139.129C181.173 139.697 182.047 145.307 185.663 144.738L185.644 144.751Z" fill="#F2F2F2"/>
<path d="M81.03 158.571C83.5292 174.426 97.4062 178.077 102.271 177.31C107.145 176.542 116.113 173.33 112.979 153.513L81.03 158.571Z" fill="#262223"/>
<path d="M78.0577 159.04C80.1668 170.488 90.356 182.306 103.185 180.212C116.331 178.059 117.51 163.838 115.953 153.054C115.72 151.446 114.107 150.298 112.512 150.55C101.861 152.229 91.2126 153.918 80.5629 155.608C76.7386 156.211 77.6658 162.158 81.5001 161.554C92.1504 159.874 102.8 158.185 113.449 156.496L110.008 153.992C111.029 161.112 111.672 172.791 102.249 174.267C92.7472 175.765 85.5261 166.352 84.0023 158.103C83.3018 154.303 77.3541 155.221 78.0577 159.04Z" fill="#262223"/>
<path d="M208.03 138.571C210.529 154.425 224.407 158.077 229.271 157.31C234.146 156.541 243.113 153.33 239.979 133.513L208.03 138.571Z" fill="#262223"/>
<path d="M205.058 139.04C207.167 150.488 217.356 162.306 230.185 160.212C243.014 158.118 244.511 143.838 242.953 133.054C242.72 131.446 241.107 130.298 239.512 130.55C228.861 132.229 218.212 133.918 207.563 135.608C203.739 136.211 204.666 142.158 208.5 141.554C219.151 139.874 229.8 138.185 240.449 136.496L237.008 133.992C238.03 141.112 238.672 152.791 229.248 154.267C219.824 155.742 212.526 146.352 211.003 138.102C210.302 134.303 204.354 135.221 205.058 139.04Z" fill="#262223"/>
<path d="M157.434 200.189C164.137 199.132 168.906 194.061 168.087 188.862C167.267 183.663 161.169 180.305 154.466 181.362C147.763 182.418 142.994 187.49 143.813 192.69C144.632 197.888 150.731 201.247 157.434 200.189Z" fill="black"/>
<path d="M165.856 189.204C166.34 192.722 163.456 195.624 160.4 196.979C156.88 198.55 152.239 198.673 148.948 196.47C146.245 194.662 145.15 191.574 146.751 188.651C148.641 185.185 152.977 183.445 156.767 183.396C160.556 183.346 165.146 185.152 165.864 189.192C166.375 192.047 170.835 191.354 170.323 188.49C169.352 183.036 164.351 179.722 159.125 179.033C153.515 178.292 147.28 180.413 143.785 184.976C140.601 189.124 140.749 194.96 144.552 198.667C148.751 202.757 155.151 203.424 160.568 201.716C165.986 200.009 171.178 194.752 170.311 188.481C169.917 185.597 165.459 186.301 165.853 189.184L165.856 189.204Z" fill="black"/>
<path d="M143.215 237.855C149.226 233.667 155.237 229.094 160.155 223.637C162.92 220.571 164.555 217.672 164.177 213.466C163.763 208.779 162.811 204.096 161.892 199.487C160.753 193.807 151.831 195.184 152.976 200.894C153.738 204.704 154.433 208.534 154.961 212.391C155.441 215.89 154.403 216.846 151.628 219.528C147.302 223.714 142.433 227.416 137.502 230.855C132.57 234.293 138.466 241.163 143.213 237.845L143.215 237.855Z" fill="black"/>
<path d="M183.532 222.946C178.312 223.586 165.649 220.748 164.289 214.565C163.044 208.922 154.111 210.29 155.372 215.971C157.944 227.59 174.308 233.164 184.937 231.864C190.705 231.158 189.299 222.239 183.532 222.946Z" fill="black"/>
<path d="M27.2692 288.239C36.1897 275.905 45.1118 263.581 54.0322 251.247C57.4426 246.535 50.1463 241.216 46.7376 245.938C37.8171 258.272 28.8951 270.596 19.9746 282.93C16.5643 287.642 23.8606 292.96 27.2692 288.239Z" fill="black"/>
<path d="M53.4515 299.933C59.8664 287.872 66.2913 275.809 72.7062 263.748C75.4308 258.617 66.9917 255.388 64.2988 260.464C57.8839 272.524 51.459 284.587 45.0441 296.647C42.3195 301.779 50.7586 305.009 53.4515 299.933Z" fill="black"/>
<path d="M252.126 231.03C261.207 238.067 270.297 245.104 279.377 252.141C283.981 255.712 289.276 248.398 284.685 244.845C275.605 237.808 266.515 230.772 257.434 223.734C252.831 220.163 247.536 227.478 252.126 231.03Z" fill="black"/>
<path d="M266.497 203.933C277.593 211.445 288.677 218.96 299.771 226.472C304.579 229.726 309.908 222.437 305.079 219.176C293.985 211.664 282.901 204.15 271.805 196.637C266.998 193.384 261.669 200.673 266.497 203.933Z" fill="black"/>
<path d="M84.2347 59.3783L100.413 56.8271L105.404 88.4872C106.099 92.8972 103.085 97.0283 98.686 97.7214C94.1585 98.4357 89.9027 95.3389 89.1886 90.8104L84.2347 59.3783Z" fill="black" stroke="#262223" stroke-width="1.5" stroke-miterlimit="10"/>
<path d="M116.275 54.3161L135.921 51.2183L141.83 88.7049C142.685 94.1252 138.981 99.2283 133.551 100.085C128.132 100.939 123.029 97.235 122.173 91.8049L116.265 54.3177L116.275 54.3161Z" fill="black" stroke="#262223" stroke-width="1.5" stroke-miterlimit="10"/>
<path d="M152.097 48.6473L168.276 46.0962L173.267 77.7562C173.962 82.1658 170.947 86.2971 166.548 86.9908C162.021 87.7047 157.766 84.608 157.052 80.0794L152.097 48.6473Z" fill="black" stroke="#262223" stroke-width="1.5" stroke-miterlimit="10"/>
</svg>
