<svg width="83" height="83" viewBox="0 0 83 83" fill="none" xmlns="http://www.w3.org/2000/svg">
<g clip-path="url(#clip0_226_339)">
<path d="M55.8601 0H27.1399C12.151 0 0 12.151 0 27.1399V55.8601C0 70.849 12.151 83 27.1399 83H55.8601C70.849 83 83 70.849 83 55.8601V27.1399C83 12.151 70.849 0 55.8601 0Z" fill="#F0BDF3"/>
<path d="M37.2201 23.1411V28.3129H29.8336V52.843H37.2201V58.0148H15.5393V52.843H22.9259V28.3129H15.5393V23.1411H37.2201Z" fill="#262223"/>
<path d="M37.2201 23.1411V28.3129H29.8336V52.843H37.2201V58.0148H15.5393V52.843H22.9259V28.3129H15.5393V23.1411H37.2201Z" fill="black" fill-opacity="0.2"/>
<path d="M37.2201 23.1411V28.3129H29.8336V52.843H37.2201V58.0148H15.5393V52.843H22.9259V28.3129H15.5393V23.1411H37.2201Z" fill="black" fill-opacity="0.2"/>
<path d="M37.2201 23.1411V28.3129H29.8336V52.843H37.2201V58.0148H15.5393V52.843H22.9259V28.3129H15.5393V23.1411H37.2201Z" fill="black" fill-opacity="0.2"/>
<path d="M37.2201 23.1411V28.3129H29.8336V52.843H37.2201V58.0148H15.5393V52.843H22.9259V28.3129H15.5393V23.1411H37.2201Z" fill="black" fill-opacity="0.2"/>
<path d="M61.0439 19.9329L67.7002 20.6392V58.003H61.7982L61.3911 54.8544C60.5651 56.0276 59.5355 56.9734 58.2904 57.6917C57.0454 58.41 55.5968 58.7692 53.9567 58.7692C51.706 58.7692 49.8384 58.1825 48.3779 57.0093C46.9053 55.8361 45.8159 54.184 45.0976 52.053C44.3793 49.922 44.0201 47.4559 44.0201 44.6305C44.0201 41.8052 44.4392 39.4947 45.2772 37.3757C46.1152 35.2567 47.3363 33.5926 48.9166 32.3835C50.5088 31.1743 52.3884 30.5638 54.5792 30.5638C55.8961 30.5638 57.0813 30.7912 58.1588 31.2461C59.2362 31.7011 60.1939 32.3715 61.032 33.2574V19.9448L61.0439 19.9329ZM56.375 35.5201C54.6989 35.5201 53.3701 36.2503 52.4004 37.6989C51.4306 39.1475 50.9518 41.47 50.9518 44.6425C50.9518 46.8812 51.1553 48.665 51.5623 49.9939C51.9694 51.3347 52.532 52.2924 53.2743 52.8791C54.0165 53.4657 54.8905 53.765 55.8961 53.765C57.0095 53.765 57.9792 53.4298 58.8292 52.7713C59.6792 52.1129 60.4094 51.2748 61.032 50.2932V38.1419C60.4094 37.3158 59.7151 36.6813 58.9489 36.2144C58.1827 35.7475 57.3207 35.5201 56.363 35.5201H56.375Z" fill="#262223"/>
<path d="M61.0439 19.9329L67.7002 20.6392V58.003H61.7982L61.3911 54.8544C60.5651 56.0276 59.5355 56.9734 58.2904 57.6917C57.0454 58.41 55.5968 58.7692 53.9567 58.7692C51.706 58.7692 49.8384 58.1825 48.3779 57.0093C46.9053 55.8361 45.8159 54.184 45.0976 52.053C44.3793 49.922 44.0201 47.4559 44.0201 44.6305C44.0201 41.8052 44.4392 39.4947 45.2772 37.3757C46.1152 35.2567 47.3363 33.5926 48.9166 32.3835C50.5088 31.1743 52.3884 30.5638 54.5792 30.5638C55.8961 30.5638 57.0813 30.7912 58.1588 31.2461C59.2362 31.7011 60.1939 32.3715 61.032 33.2574V19.9448L61.0439 19.9329ZM56.375 35.5201C54.6989 35.5201 53.3701 36.2503 52.4004 37.6989C51.4306 39.1475 50.9518 41.47 50.9518 44.6425C50.9518 46.8812 51.1553 48.665 51.5623 49.9939C51.9694 51.3347 52.532 52.2924 53.2743 52.8791C54.0165 53.4657 54.8905 53.765 55.8961 53.765C57.0095 53.765 57.9792 53.4298 58.8292 52.7713C59.6792 52.1129 60.4094 51.2748 61.032 50.2932V38.1419C60.4094 37.3158 59.7151 36.6813 58.9489 36.2144C58.1827 35.7475 57.3207 35.5201 56.363 35.5201H56.375Z" fill="black" fill-opacity="0.2"/>
<path d="M61.0439 19.9329L67.7002 20.6392V58.003H61.7982L61.3911 54.8544C60.5651 56.0276 59.5355 56.9734 58.2904 57.6917C57.0454 58.41 55.5968 58.7692 53.9567 58.7692C51.706 58.7692 49.8384 58.1825 48.3779 57.0093C46.9053 55.8361 45.8159 54.184 45.0976 52.053C44.3793 49.922 44.0201 47.4559 44.0201 44.6305C44.0201 41.8052 44.4392 39.4947 45.2772 37.3757C46.1152 35.2567 47.3363 33.5926 48.9166 32.3835C50.5088 31.1743 52.3884 30.5638 54.5792 30.5638C55.8961 30.5638 57.0813 30.7912 58.1588 31.2461C59.2362 31.7011 60.1939 32.3715 61.032 33.2574V19.9448L61.0439 19.9329ZM56.375 35.5201C54.6989 35.5201 53.3701 36.2503 52.4004 37.6989C51.4306 39.1475 50.9518 41.47 50.9518 44.6425C50.9518 46.8812 51.1553 48.665 51.5623 49.9939C51.9694 51.3347 52.532 52.2924 53.2743 52.8791C54.0165 53.4657 54.8905 53.765 55.8961 53.765C57.0095 53.765 57.9792 53.4298 58.8292 52.7713C59.6792 52.1129 60.4094 51.2748 61.032 50.2932V38.1419C60.4094 37.3158 59.7151 36.6813 58.9489 36.2144C58.1827 35.7475 57.3207 35.5201 56.363 35.5201H56.375Z" fill="black" fill-opacity="0.2"/>
<path d="M61.0439 19.9329L67.7002 20.6392V58.003H61.7982L61.3911 54.8544C60.5651 56.0276 59.5355 56.9734 58.2904 57.6917C57.0454 58.41 55.5968 58.7692 53.9567 58.7692C51.706 58.7692 49.8384 58.1825 48.3779 57.0093C46.9053 55.8361 45.8159 54.184 45.0976 52.053C44.3793 49.922 44.0201 47.4559 44.0201 44.6305C44.0201 41.8052 44.4392 39.4947 45.2772 37.3757C46.1152 35.2567 47.3363 33.5926 48.9166 32.3835C50.5088 31.1743 52.3884 30.5638 54.5792 30.5638C55.8961 30.5638 57.0813 30.7912 58.1588 31.2461C59.2362 31.7011 60.1939 32.3715 61.032 33.2574V19.9448L61.0439 19.9329ZM56.375 35.5201C54.6989 35.5201 53.3701 36.2503 52.4004 37.6989C51.4306 39.1475 50.9518 41.47 50.9518 44.6425C50.9518 46.8812 51.1553 48.665 51.5623 49.9939C51.9694 51.3347 52.532 52.2924 53.2743 52.8791C54.0165 53.4657 54.8905 53.765 55.8961 53.765C57.0095 53.765 57.9792 53.4298 58.8292 52.7713C59.6792 52.1129 60.4094 51.2748 61.032 50.2932V38.1419C60.4094 37.3158 59.7151 36.6813 58.9489 36.2144C58.1827 35.7475 57.3207 35.5201 56.363 35.5201H56.375Z" fill="black" fill-opacity="0.2"/>
<path d="M61.0439 19.9329L67.7002 20.6392V58.003H61.7982L61.3911 54.8544C60.5651 56.0276 59.5355 56.9734 58.2904 57.6917C57.0454 58.41 55.5968 58.7692 53.9567 58.7692C51.706 58.7692 49.8384 58.1825 48.3779 57.0093C46.9053 55.8361 45.8159 54.184 45.0976 52.053C44.3793 49.922 44.0201 47.4559 44.0201 44.6305C44.0201 41.8052 44.4392 39.4947 45.2772 37.3757C46.1152 35.2567 47.3363 33.5926 48.9166 32.3835C50.5088 31.1743 52.3884 30.5638 54.5792 30.5638C55.8961 30.5638 57.0813 30.7912 58.1588 31.2461C59.2362 31.7011 60.1939 32.3715 61.032 33.2574V19.9448L61.0439 19.9329ZM56.375 35.5201C54.6989 35.5201 53.3701 36.2503 52.4004 37.6989C51.4306 39.1475 50.9518 41.47 50.9518 44.6425C50.9518 46.8812 51.1553 48.665 51.5623 49.9939C51.9694 51.3347 52.532 52.2924 53.2743 52.8791C54.0165 53.4657 54.8905 53.765 55.8961 53.765C57.0095 53.765 57.9792 53.4298 58.8292 52.7713C59.6792 52.1129 60.4094 51.2748 61.032 50.2932V38.1419C60.4094 37.3158 59.7151 36.6813 58.9489 36.2144C58.1827 35.7475 57.3207 35.5201 56.363 35.5201H56.375Z" fill="black" fill-opacity="0.2"/>
</g>
<defs>
<clipPath id="clip0_226_339">
<rect width="83" height="83" fill="white"/>
</clipPath>
</defs>
</svg>
