<svg width="60" height="47" viewBox="0 0 60 47" fill="none" xmlns="http://www.w3.org/2000/svg">
<path d="M37.8538 14.4239C44.1621 14.4239 45.4125 20.3889 45.4125 24.9517V47.0009H33.3057V32.4961C33.3057 26.8235 33.3624 25.3032 31.8278 25.3032C30.4632 25.3032 29.0996 26.5901 29.0996 32.4961V47.0009H16.9928V32.4961C16.9928 26.8235 17.0495 25.3032 15.3449 25.3032C14.1513 25.3032 13.0719 26.1224 12.7876 32.5552V47.0009H0V16.1195H12.7885V16.7043C12.7885 18.3999 12.6176 20.0383 10.5721 27.2322L11.0264 27.4075C12.6176 21.6758 14.0955 14.4239 21.5418 14.4239C24.4977 14.4239 26.3165 15.7108 27.4526 17.5826C28.4753 19.2782 28.3053 22.0854 27.225 27.4665L27.7935 27.5246C28.9305 21.7349 30.7493 14.4239 37.8538 14.4239Z" fill="#262223"/>
<path d="M37.8538 14.4239C44.1621 14.4239 45.4125 20.3889 45.4125 24.9517V47.0009H33.3057V32.4961C33.3057 26.8235 33.3624 25.3032 31.8278 25.3032C30.4632 25.3032 29.0996 26.5901 29.0996 32.4961V47.0009H16.9928V32.4961C16.9928 26.8235 17.0495 25.3032 15.3449 25.3032C14.1513 25.3032 13.0719 26.1224 12.7876 32.5552V47.0009H0V16.1195H12.7885V16.7043C12.7885 18.3999 12.6176 20.0383 10.5721 27.2322L11.0264 27.4075C12.6176 21.6758 14.0955 14.4239 21.5418 14.4239C24.4977 14.4239 26.3165 15.7108 27.4526 17.5826C28.4753 19.2782 28.3053 22.0854 27.225 27.4665L27.7935 27.5246C28.9305 21.7349 30.7493 14.4239 37.8538 14.4239Z" fill="black" fill-opacity="0.2"/>
<path d="M37.8538 14.4239C44.1621 14.4239 45.4125 20.3889 45.4125 24.9517V47.0009H33.3057V32.4961C33.3057 26.8235 33.3624 25.3032 31.8278 25.3032C30.4632 25.3032 29.0996 26.5901 29.0996 32.4961V47.0009H16.9928V32.4961C16.9928 26.8235 17.0495 25.3032 15.3449 25.3032C14.1513 25.3032 13.0719 26.1224 12.7876 32.5552V47.0009H0V16.1195H12.7885V16.7043C12.7885 18.3999 12.6176 20.0383 10.5721 27.2322L11.0264 27.4075C12.6176 21.6758 14.0955 14.4239 21.5418 14.4239C24.4977 14.4239 26.3165 15.7108 27.4526 17.5826C28.4753 19.2782 28.3053 22.0854 27.225 27.4665L27.7935 27.5246C28.9305 21.7349 30.7493 14.4239 37.8538 14.4239Z" fill="black" fill-opacity="0.2"/>
<path d="M37.8538 14.4239C44.1621 14.4239 45.4125 20.3889 45.4125 24.9517V47.0009H33.3057V32.4961C33.3057 26.8235 33.3624 25.3032 31.8278 25.3032C30.4632 25.3032 29.0996 26.5901 29.0996 32.4961V47.0009H16.9928V32.4961C16.9928 26.8235 17.0495 25.3032 15.3449 25.3032C14.1513 25.3032 13.0719 26.1224 12.7876 32.5552V47.0009H0V16.1195H12.7885V16.7043C12.7885 18.3999 12.6176 20.0383 10.5721 27.2322L11.0264 27.4075C12.6176 21.6758 14.0955 14.4239 21.5418 14.4239C24.4977 14.4239 26.3165 15.7108 27.4526 17.5826C28.4753 19.2782 28.3053 22.0854 27.225 27.4665L27.7935 27.5246C28.9305 21.7349 30.7493 14.4239 37.8538 14.4239Z" fill="black" fill-opacity="0.2"/>
<path d="M37.8538 14.4239C44.1621 14.4239 45.4125 20.3889 45.4125 24.9517V47.0009H33.3057V32.4961C33.3057 26.8235 33.3624 25.3032 31.8278 25.3032C30.4632 25.3032 29.0996 26.5901 29.0996 32.4961V47.0009H16.9928V32.4961C16.9928 26.8235 17.0495 25.3032 15.3449 25.3032C14.1513 25.3032 13.0719 26.1224 12.7876 32.5552V47.0009H0V16.1195H12.7885V16.7043C12.7885 18.3999 12.6176 20.0383 10.5721 27.2322L11.0264 27.4075C12.6176 21.6758 14.0955 14.4239 21.5418 14.4239C24.4977 14.4239 26.3165 15.7108 27.4526 17.5826C28.4753 19.2782 28.3053 22.0854 27.225 27.4665L27.7935 27.5246C28.9305 21.7349 30.7493 14.4239 37.8538 14.4239Z" fill="black" fill-opacity="0.2"/>
<path d="M49.4948 21.1929C49.4948 15.3412 44.7919 10.5964 38.9897 10.5964C44.7919 10.5964 49.4948 5.85166 49.4948 0C49.4948 5.85166 54.1977 10.5964 59.9999 10.5964C54.1987 10.5964 49.4948 15.3403 49.4948 21.1929Z" fill="#262223"/>
<path d="M49.4948 21.1929C49.4948 15.3412 44.7919 10.5964 38.9897 10.5964C44.7919 10.5964 49.4948 5.85166 49.4948 0C49.4948 5.85166 54.1977 10.5964 59.9999 10.5964C54.1987 10.5964 49.4948 15.3403 49.4948 21.1929Z" fill="black" fill-opacity="0.2"/>
<path d="M49.4948 21.1929C49.4948 15.3412 44.7919 10.5964 38.9897 10.5964C44.7919 10.5964 49.4948 5.85166 49.4948 0C49.4948 5.85166 54.1977 10.5964 59.9999 10.5964C54.1987 10.5964 49.4948 15.3403 49.4948 21.1929Z" fill="black" fill-opacity="0.2"/>
<path d="M49.4948 21.1929C49.4948 15.3412 44.7919 10.5964 38.9897 10.5964C44.7919 10.5964 49.4948 5.85166 49.4948 0C49.4948 5.85166 54.1977 10.5964 59.9999 10.5964C54.1987 10.5964 49.4948 15.3403 49.4948 21.1929Z" fill="black" fill-opacity="0.2"/>
<path d="M49.4948 21.1929C49.4948 15.3412 44.7919 10.5964 38.9897 10.5964C44.7919 10.5964 49.4948 5.85166 49.4948 0C49.4948 5.85166 54.1977 10.5964 59.9999 10.5964C54.1987 10.5964 49.4948 15.3403 49.4948 21.1929Z" fill="black" fill-opacity="0.2"/>
</svg>
