<svg width="48" height="41" viewBox="0 0 48 41" fill="none" xmlns="http://www.w3.org/2000/svg">
<path d="M8.70618 12.1887H37.4366" stroke="#262223" stroke-width="1.74124" stroke-linecap="round"/>
<path d="M8.70618 12.1887H37.4366" stroke="black" stroke-opacity="0.2" stroke-width="1.74124" stroke-linecap="round"/>
<path d="M8.70618 12.1887H37.4366" stroke="black" stroke-opacity="0.2" stroke-width="1.74124" stroke-linecap="round"/>
<path d="M8.70618 12.1887H37.4366" stroke="black" stroke-opacity="0.2" stroke-width="1.74124" stroke-linecap="round"/>
<path d="M8.70618 12.1887H37.4366" stroke="black" stroke-opacity="0.2" stroke-width="1.74124" stroke-linecap="round"/>
<path d="M9.14148 20.4596H37.8719" stroke="#262223" stroke-width="1.74124" stroke-linecap="round"/>
<path d="M9.14148 20.4596H37.8719" stroke="black" stroke-opacity="0.2" stroke-width="1.74124" stroke-linecap="round"/>
<path d="M9.14148 20.4596H37.8719" stroke="black" stroke-opacity="0.2" stroke-width="1.74124" stroke-linecap="round"/>
<path d="M9.14148 20.4596H37.8719" stroke="black" stroke-opacity="0.2" stroke-width="1.74124" stroke-linecap="round"/>
<path d="M9.14148 20.4596H37.8719" stroke="black" stroke-opacity="0.2" stroke-width="1.74124" stroke-linecap="round"/>
<path d="M9.14148 29.1658H37.8719" stroke="#262223" stroke-width="1.74124" stroke-linecap="round"/>
<path d="M9.14148 29.1658H37.8719" stroke="black" stroke-opacity="0.2" stroke-width="1.74124" stroke-linecap="round"/>
<path d="M9.14148 29.1658H37.8719" stroke="black" stroke-opacity="0.2" stroke-width="1.74124" stroke-linecap="round"/>
<path d="M9.14148 29.1658H37.8719" stroke="black" stroke-opacity="0.2" stroke-width="1.74124" stroke-linecap="round"/>
<path d="M9.14148 29.1658H37.8719" stroke="black" stroke-opacity="0.2" stroke-width="1.74124" stroke-linecap="round"/>
<rect x="0.87062" y="0.87062" width="45.2722" height="39.1779" rx="7.83558" stroke="#262223" stroke-width="1.74124"/>
<rect x="0.87062" y="0.87062" width="45.2722" height="39.1779" rx="7.83558" stroke="black" stroke-opacity="0.2" stroke-width="1.74124"/>
<rect x="0.87062" y="0.87062" width="45.2722" height="39.1779" rx="7.83558" stroke="black" stroke-opacity="0.2" stroke-width="1.74124"/>
<rect x="0.87062" y="0.87062" width="45.2722" height="39.1779" rx="7.83558" stroke="black" stroke-opacity="0.2" stroke-width="1.74124"/>
<rect x="0.87062" y="0.87062" width="45.2722" height="39.1779" rx="7.83558" stroke="black" stroke-opacity="0.2" stroke-width="1.74124"/>
</svg>
