<svg width="69" height="70" viewBox="0 0 69 70" fill="none" xmlns="http://www.w3.org/2000/svg">
<path d="M37.0021 10.0236L44.9058 1.14572C47.0293 -1.23694 50.9222 0.395016 50.7613 3.60453L50.1607 15.5504C50.0642 17.5741 51.705 19.2387 53.689 19.1299L65.4643 18.5206C68.628 18.3574 70.2366 22.3067 67.888 24.4609L59.137 32.4793C57.657 33.8283 57.657 36.1892 59.137 37.5383L67.888 45.5567C70.2366 47.7108 68.628 51.6602 65.4643 51.497L53.689 50.8877C51.6943 50.7898 50.0535 52.4544 50.1607 54.4671L50.7613 66.413C50.9222 69.6226 47.0293 71.2545 44.9058 68.8719L37.0021 59.994C35.6722 58.4926 33.3451 58.4926 32.0153 59.994L24.1115 68.8719C21.9881 71.2545 18.0952 69.6226 18.256 66.413L18.8566 54.4671C18.9531 52.4435 17.3123 50.7789 15.3283 50.8877L3.55304 51.497C0.389373 51.6602 -1.21927 47.7108 1.12935 45.5567L9.88036 37.5383C11.3603 36.1892 11.3603 33.8283 9.88036 32.4793L1.11862 24.45C-1.22999 22.2959 0.378649 18.3465 3.54231 18.5097L15.3176 19.119C17.3123 19.2169 18.9531 17.5523 18.8459 15.5396L18.2453 3.59365C18.0844 0.384137 21.9773 -1.24782 24.1007 1.13484L32.0045 10.0127C33.3344 11.5141 35.6615 11.5141 36.9913 10.0127L37.0021 10.0236Z" fill="#A7FC00"/>
</svg>
