<svg width="66" height="68" viewBox="0 0 66 68" fill="none" xmlns="http://www.w3.org/2000/svg">
<path d="M32.9748 34.0155L37.4764 68H28.4833L32.9748 34.0155Z" fill="#F0BDF3"/>
<path d="M32.9747 34.0155L17.0677 64.1975L9.79047 58.7728L32.9747 34.0155Z" fill="#F0BDF3"/>
<path d="M32.9748 34.0155L2.75547 48.812L0 40.0395L32.9748 34.0155Z" fill="#F0BDF3"/>
<path d="M32.9747 34.0155L0.0403442 27.7538L2.85637 19.002L32.9747 34.0155Z" fill="#F0BDF3"/>
<path d="M32.9748 34.0155L9.9621 9.09289L17.2696 3.71985L32.9748 34.0155Z" fill="#F0BDF3"/>
<path d="M32.9748 34.0155L28.7053 0L37.7085 0.0619967L32.9748 34.0155Z" fill="#F0BDF3"/>
<path d="M32.9748 34.0155L49.0938 3.94714L56.3307 9.42352L32.9748 34.0155Z" fill="#F0BDF3"/>
<path d="M32.9748 34.0155L63.295 19.4359L66 28.2188L32.9748 34.0155Z" fill="#F0BDF3"/>
<path d="M32.9748 34.0155L65.8688 40.5148L62.9922 49.2357L32.9748 34.0155Z" fill="#F0BDF3"/>
<path d="M32.9748 34.0155L55.826 59.0932L48.4781 64.4145L32.9748 34.0155Z" fill="#F0BDF3"/>
</svg>
