<svg width="81" height="95" viewBox="0 0 81 95" fill="none" xmlns="http://www.w3.org/2000/svg">
<path d="M52.2816 53.182C61.375 49.1387 81 47.4944 81 47.4944C81 47.4944 61.375 45.85 52.2816 41.8068C55.6778 32.2899 67.0612 16.3533 67.0612 16.3533C67.0612 16.3533 53.4764 29.6995 45.3565 33.6864C41.8054 23.1334 40.5 0 40.5 0C40.5 0 39.0951 23.0207 35.6435 33.6864C27.5236 29.6995 13.9388 16.3533 13.9388 16.3533C13.9388 16.3533 25.3222 32.2899 28.7184 41.8068C19.7135 45.9739 0 47.4944 0 47.4944C0 47.4944 19.7245 49.0261 28.7184 53.182C25.3222 62.6989 13.9388 78.6354 13.9388 78.6354C13.9388 78.6354 27.5236 65.2893 35.6435 61.3023C39.0951 71.968 40.5 94.9887 40.5 94.9887C40.5 94.9887 41.8054 71.8554 45.3565 61.3023C53.4764 65.2893 67.0612 78.6354 67.0612 78.6354C67.0612 78.6354 55.6778 62.6989 52.2816 53.182Z" fill="#262223"/>
<path d="M52.2816 53.182C61.375 49.1387 81 47.4944 81 47.4944C81 47.4944 61.375 45.85 52.2816 41.8068C55.6778 32.2899 67.0612 16.3533 67.0612 16.3533C67.0612 16.3533 53.4764 29.6995 45.3565 33.6864C41.8054 23.1334 40.5 0 40.5 0C40.5 0 39.0951 23.0207 35.6435 33.6864C27.5236 29.6995 13.9388 16.3533 13.9388 16.3533C13.9388 16.3533 25.3222 32.2899 28.7184 41.8068C19.7135 45.9739 0 47.4944 0 47.4944C0 47.4944 19.7245 49.0261 28.7184 53.182C25.3222 62.6989 13.9388 78.6354 13.9388 78.6354C13.9388 78.6354 27.5236 65.2893 35.6435 61.3023C39.0951 71.968 40.5 94.9887 40.5 94.9887C40.5 94.9887 41.8054 71.8554 45.3565 61.3023C53.4764 65.2893 67.0612 78.6354 67.0612 78.6354C67.0612 78.6354 55.6778 62.6989 52.2816 53.182Z" fill="black" fill-opacity="0.2"/>
<path d="M52.2816 53.182C61.375 49.1387 81 47.4944 81 47.4944C81 47.4944 61.375 45.85 52.2816 41.8068C55.6778 32.2899 67.0612 16.3533 67.0612 16.3533C67.0612 16.3533 53.4764 29.6995 45.3565 33.6864C41.8054 23.1334 40.5 0 40.5 0C40.5 0 39.0951 23.0207 35.6435 33.6864C27.5236 29.6995 13.9388 16.3533 13.9388 16.3533C13.9388 16.3533 25.3222 32.2899 28.7184 41.8068C19.7135 45.9739 0 47.4944 0 47.4944C0 47.4944 19.7245 49.0261 28.7184 53.182C25.3222 62.6989 13.9388 78.6354 13.9388 78.6354C13.9388 78.6354 27.5236 65.2893 35.6435 61.3023C39.0951 71.968 40.5 94.9887 40.5 94.9887C40.5 94.9887 41.8054 71.8554 45.3565 61.3023C53.4764 65.2893 67.0612 78.6354 67.0612 78.6354C67.0612 78.6354 55.6778 62.6989 52.2816 53.182Z" fill="black" fill-opacity="0.2"/>
<path d="M52.2816 53.182C61.375 49.1387 81 47.4944 81 47.4944C81 47.4944 61.375 45.85 52.2816 41.8068C55.6778 32.2899 67.0612 16.3533 67.0612 16.3533C67.0612 16.3533 53.4764 29.6995 45.3565 33.6864C41.8054 23.1334 40.5 0 40.5 0C40.5 0 39.0951 23.0207 35.6435 33.6864C27.5236 29.6995 13.9388 16.3533 13.9388 16.3533C13.9388 16.3533 25.3222 32.2899 28.7184 41.8068C19.7135 45.9739 0 47.4944 0 47.4944C0 47.4944 19.7245 49.0261 28.7184 53.182C25.3222 62.6989 13.9388 78.6354 13.9388 78.6354C13.9388 78.6354 27.5236 65.2893 35.6435 61.3023C39.0951 71.968 40.5 94.9887 40.5 94.9887C40.5 94.9887 41.8054 71.8554 45.3565 61.3023C53.4764 65.2893 67.0612 78.6354 67.0612 78.6354C67.0612 78.6354 55.6778 62.6989 52.2816 53.182Z" fill="black" fill-opacity="0.2"/>
<path d="M52.2816 53.182C61.375 49.1387 81 47.4944 81 47.4944C81 47.4944 61.375 45.85 52.2816 41.8068C55.6778 32.2899 67.0612 16.3533 67.0612 16.3533C67.0612 16.3533 53.4764 29.6995 45.3565 33.6864C41.8054 23.1334 40.5 0 40.5 0C40.5 0 39.0951 23.0207 35.6435 33.6864C27.5236 29.6995 13.9388 16.3533 13.9388 16.3533C13.9388 16.3533 25.3222 32.2899 28.7184 41.8068C19.7135 45.9739 0 47.4944 0 47.4944C0 47.4944 19.7245 49.0261 28.7184 53.182C25.3222 62.6989 13.9388 78.6354 13.9388 78.6354C13.9388 78.6354 27.5236 65.2893 35.6435 61.3023C39.0951 71.968 40.5 94.9887 40.5 94.9887C40.5 94.9887 41.8054 71.8554 45.3565 61.3023C53.4764 65.2893 67.0612 78.6354 67.0612 78.6354C67.0612 78.6354 55.6778 62.6989 52.2816 53.182Z" fill="black" fill-opacity="0.2"/>
</svg>
