<svg width="288" height="288" viewBox="0 0 288 288" fill="none" xmlns="http://www.w3.org/2000/svg">
<path d="M148.48 47.0136L166.214 3.30293C168.408 -2.09313 176.41 -0.492388 176.359 5.31677L176.023 52.4871C175.997 57.2119 181.728 59.5872 185.058 56.2308L218.177 22.641C222.256 18.51 229.045 23.0541 226.799 28.3985L208.445 71.851C206.613 76.2143 211.001 80.6034 215.363 78.7703L258.808 60.4134C264.152 58.1414 268.695 64.9574 264.565 69.0368L230.981 102.162C227.599 105.492 229.974 111.224 234.724 111.198L281.886 110.863C287.694 110.811 289.294 118.841 283.899 121.009L240.196 138.747C235.808 140.528 235.808 146.725 240.196 148.506L283.899 166.243C289.294 168.438 287.694 176.442 281.886 176.39L234.724 176.054C230 176.029 227.625 181.76 230.981 185.091L264.565 218.216C268.695 222.295 264.152 229.085 258.808 226.839L215.363 208.482C211.001 206.649 206.613 211.038 208.445 215.402L226.799 258.854C229.071 264.199 222.256 268.743 218.177 264.612L185.058 231.022C181.728 227.64 175.997 230.015 176.023 234.766L176.359 281.936C176.41 287.745 168.382 289.346 166.214 283.95L148.48 240.239C146.698 235.85 140.503 235.85 138.722 240.239L120.988 283.95C118.794 289.346 110.791 287.745 110.843 281.936L111.179 234.766C111.204 230.041 105.474 227.665 102.144 231.022L69.0245 264.612C64.9459 268.743 58.1569 264.199 60.4027 258.854L78.7563 215.402C80.5891 211.038 76.2008 206.649 71.8382 208.482L28.3934 226.839C23.05 229.111 18.5067 222.295 22.6369 218.216L56.2208 185.091C59.6024 181.76 57.2276 176.029 52.4778 176.054L5.31582 176.39C-0.492301 176.442 -2.09276 168.412 3.30234 166.243L47.0053 148.506C51.3936 146.725 51.3936 140.528 47.0053 138.747L3.30234 121.009C-2.09276 118.815 -0.492301 110.811 5.31582 110.863L52.4778 111.198C57.2017 111.224 59.5766 105.492 56.2208 102.162L22.6369 69.0368C18.5067 64.9574 23.05 58.1672 28.3934 60.4134L71.8382 78.7703C76.2008 80.6034 80.5891 76.2143 78.7563 71.851L60.4027 28.3985C58.131 23.0541 64.9459 18.51 69.0245 22.641L102.144 56.2308C105.474 59.613 111.204 57.2377 111.179 52.4871L110.843 5.31677C110.791 -0.492388 118.819 -2.09313 120.988 3.30293L138.722 47.0136C140.503 51.4027 146.698 51.4027 148.48 47.0136Z" fill="#DF73FF"/>
</svg>
